<svg width="50" height="50" viewBox="0 0 50 50" fill="none" xmlns="http://www.w3.org/2000/svg">
<g clip-path="url(#clip0_47_7835)">
<path d="M29.167 6.25V14.5833C29.167 15.1359 29.3865 15.6658 29.7772 16.0565C30.1679 16.4472 30.6978 16.6667 31.2503 16.6667H39.5837" stroke="#364F6B" stroke-width="2" stroke-linecap="round" stroke-linejoin="round"/>
<path d="M35.417 43.75H14.5837C13.4786 43.75 12.4188 43.311 11.6374 42.5296C10.856 41.7482 10.417 40.6884 10.417 39.5833V10.4167C10.417 9.3116 10.856 8.25179 11.6374 7.47039C12.4188 6.68899 13.4786 6.25 14.5837 6.25H29.167L39.5837 16.6667V39.5833C39.5837 40.6884 39.1447 41.7482 38.3633 42.5296C37.5819 43.311 36.5221 43.75 35.417 43.75Z" stroke="#364F6B" stroke-width="2" stroke-linecap="round" stroke-linejoin="round"/>
</g>
<g clip-path="url(#clip1_47_7835)">
<path d="M28.9163 25.4167C28.7505 24.946 28.4475 24.5358 28.0466 24.2388C27.6456 23.9418 27.1649 23.7715 26.6663 23.75H23.333C22.67 23.75 22.0341 24.0134 21.5652 24.4822C21.0964 24.9511 20.833 25.587 20.833 26.25C20.833 26.913 21.0964 27.5489 21.5652 28.0178C22.0341 28.4866 22.67 28.75 23.333 28.75H26.6663C27.3294 28.75 27.9653 29.0134 28.4341 29.4822C28.9029 29.9511 29.1663 30.587 29.1663 31.25C29.1663 31.913 28.9029 32.5489 28.4341 33.0178C27.9653 33.4866 27.3294 33.75 26.6663 33.75H23.333C22.8345 33.7285 22.3538 33.5582 21.9528 33.2612C21.5518 32.9642 21.2489 32.554 21.083 32.0833" stroke="#364F6B" stroke-width="2" stroke-linecap="round" stroke-linejoin="round"/>
<path d="M25 21.25V23.75M25 33.75V36.25" stroke="#364F6B" stroke-width="2" stroke-linecap="round" stroke-linejoin="round"/>
</g>
<defs>
<clipPath id="clip0_47_7835">
<rect width="50" height="50" fill="white"/>
</clipPath>
<clipPath id="clip1_47_7835">
<rect width="20" height="20" fill="white" transform="translate(15 18.75)"/>
</clipPath>
</defs>
</svg>
