<svg width="28" height="28" viewBox="0 0 28 28" fill="none" xmlns="http://www.w3.org/2000/svg">
<g clip-path="url(#clip0_47_7744)">
<path d="M4.66675 8.1665H23.3334" stroke="white" stroke-width="2.75" stroke-linecap="round" stroke-linejoin="round"/>
<path d="M11.6667 12.8335V19.8335" stroke="white" stroke-width="2.75" stroke-linecap="round" stroke-linejoin="round"/>
<path d="M16.3333 12.8335V19.8335" stroke="white" stroke-width="2.75" stroke-linecap="round" stroke-linejoin="round"/>
<path d="M5.83325 8.1665L6.99992 22.1665C6.99992 22.7853 7.24575 23.3788 7.68334 23.8164C8.12092 24.254 8.71441 24.4998 9.33325 24.4998H18.6666C19.2854 24.4998 19.8789 24.254 20.3165 23.8164C20.7541 23.3788 20.9999 22.7853 20.9999 22.1665L22.1666 8.1665" stroke="white" stroke-width="2.75" stroke-linecap="round" stroke-linejoin="round"/>
<path d="M10.5 8.16667V4.66667C10.5 4.35725 10.6229 4.0605 10.8417 3.84171C11.0605 3.62292 11.3572 3.5 11.6667 3.5H16.3333C16.6428 3.5 16.9395 3.62292 17.1583 3.84171C17.3771 4.0605 17.5 4.35725 17.5 4.66667V8.16667" stroke="white" stroke-width="2.75" stroke-linecap="round" stroke-linejoin="round"/>
</g>
<defs>
<clipPath id="clip0_47_7744">
<rect width="28" height="28" fill="white"/>
</clipPath>
</defs>
</svg>
