<svg width="34" height="34" viewBox="0 0 34 34" fill="none" xmlns="http://www.w3.org/2000/svg">
<g clip-path="url(#clip0_47_4014)">
<path d="M7.08333 9.91699H8.5C9.25145 9.91699 9.97212 9.61848 10.5035 9.08713C11.0348 8.55578 11.3333 7.83511 11.3333 7.08366C11.3333 6.70794 11.4826 6.3476 11.7483 6.08192C12.0139 5.81625 12.3743 5.66699 12.75 5.66699H21.25C21.6257 5.66699 21.9861 5.81625 22.2517 6.08192C22.5174 6.3476 22.6667 6.70794 22.6667 7.08366C22.6667 7.83511 22.9652 8.55578 23.4965 9.08713C24.0279 9.61848 24.7486 9.91699 25.5 9.91699H26.9167C27.6681 9.91699 28.3888 10.2155 28.9201 10.7469C29.4515 11.2782 29.75 11.9989 29.75 12.7503V25.5003C29.75 26.2518 29.4515 26.9724 28.9201 27.5038C28.3888 28.0351 27.6681 28.3337 26.9167 28.3337H7.08333C6.33189 28.3337 5.61122 28.0351 5.07986 27.5038C4.54851 26.9724 4.25 26.2518 4.25 25.5003V12.7503C4.25 11.9989 4.54851 11.2782 5.07986 10.7469C5.61122 10.2155 6.33189 9.91699 7.08333 9.91699" stroke="#00233A" stroke-width="2.75" stroke-linecap="round" stroke-linejoin="round"/>
<path d="M17 22.667C19.3472 22.667 21.25 20.7642 21.25 18.417C21.25 16.0698 19.3472 14.167 17 14.167C14.6528 14.167 12.75 16.0698 12.75 18.417C12.75 20.7642 14.6528 22.667 17 22.667Z" stroke="#00233A" stroke-width="2.75" stroke-linecap="round" stroke-linejoin="round"/>
</g>
<defs>
<clipPath id="clip0_47_4014">
<rect width="34" height="34" fill="white"/>
</clipPath>
</defs>
</svg>
