<svg width="100" height="100" viewBox="0 0 100 100" fill="none" xmlns="http://www.w3.org/2000/svg">
<path d="M45 2.88675C48.094 1.10042 51.906 1.10042 55 2.88675L88.3013 22.1132C91.3953 23.8996 93.3013 27.2008 93.3013 30.7735V69.2265C93.3013 72.7992 91.3953 76.1004 88.3013 77.8867L55 97.1133C51.906 98.8996 48.094 98.8996 45 97.1133L11.6987 77.8867C8.60472 76.1004 6.69873 72.7992 6.69873 69.2265V30.7735C6.69873 27.2008 8.60472 23.8996 11.6987 22.1132L45 2.88675Z" fill="#7687E1"/>
<g clip-path="url(#clip0_502_471)">
<path d="M43.5 56.5L56.5 43.5" stroke="white" stroke-width="3" stroke-linecap="round" stroke-linejoin="round"/>
<path d="M44.5833 45.6667C45.1816 45.6667 45.6667 45.1816 45.6667 44.5833C45.6667 43.985 45.1816 43.5 44.5833 43.5C43.985 43.5 43.5 43.985 43.5 44.5833C43.5 45.1816 43.985 45.6667 44.5833 45.6667Z" fill="#05D3FC" stroke="white" stroke-width="3" stroke-linecap="round" stroke-linejoin="round"/>
<path d="M55.4167 56.5C56.015 56.5 56.5 56.015 56.5 55.4166C56.5 54.8183 56.015 54.3333 55.4167 54.3333C54.8184 54.3333 54.3334 54.8183 54.3334 55.4166C54.3334 56.015 54.8184 56.5 55.4167 56.5Z" fill="#05D3FC" stroke="white" stroke-width="3" stroke-linecap="round" stroke-linejoin="round"/>
<path d="M34.8334 39.6C34.8334 38.3358 35.3356 37.1234 36.2295 36.2295C37.1234 35.3356 38.3358 34.8334 39.6 34.8334H41.7667C43.0253 34.8326 44.2326 34.3342 45.125 33.4467L46.6417 31.93C47.0847 31.4846 47.6113 31.131 48.1914 30.8898C48.7714 30.6486 49.3935 30.5244 50.0217 30.5244C50.6499 30.5244 51.2719 30.6486 51.852 30.8898C52.4321 31.131 52.9587 31.4846 53.4017 31.93L54.9184 33.4467C55.8108 34.3342 57.0181 34.8326 58.2767 34.8334H60.4434C61.7076 34.8334 62.92 35.3356 63.8139 36.2295C64.7078 37.1234 65.21 38.3358 65.21 39.6V41.7667C65.2107 43.0253 65.7092 44.2326 66.5967 45.125L68.1134 46.6417C68.5588 47.0847 68.9123 47.6113 69.1536 48.1914C69.3948 48.7714 69.519 49.3935 69.519 50.0217C69.519 50.6499 69.3948 51.2719 69.1536 51.852C68.9123 52.4321 68.5588 52.9587 68.1134 53.4017L66.5967 54.9184C65.7092 55.8108 65.2107 57.0181 65.21 58.2767V60.4434C65.21 61.7076 64.7078 62.92 63.8139 63.8139C62.92 64.7078 61.7076 65.21 60.4434 65.21H58.2767C57.0181 65.2107 55.8108 65.7092 54.9184 66.5967L53.4017 68.1134C52.9587 68.5588 52.4321 68.9123 51.852 69.1536C51.2719 69.3948 50.6499 69.519 50.0217 69.519C49.3935 69.519 48.7714 69.3948 48.1914 69.1536C47.6113 68.9123 47.0847 68.5588 46.6417 68.1134L45.125 66.5967C44.2326 65.7092 43.0253 65.2107 41.7667 65.21H39.6C38.3358 65.21 37.1234 64.7078 36.2295 63.8139C35.3356 62.92 34.8334 61.7076 34.8334 60.4434V58.2767C34.8326 57.0181 34.3342 55.8108 33.4467 54.9184L31.93 53.4017C31.4846 52.9587 31.131 52.4321 30.8898 51.852C30.6486 51.2719 30.5244 50.6499 30.5244 50.0217C30.5244 49.3935 30.6486 48.7714 30.8898 48.1914C31.131 47.6113 31.4846 47.0847 31.93 46.6417L33.4467 45.125C34.3342 44.2326 34.8326 43.0253 34.8334 41.7667V39.6" stroke="white" stroke-width="3" stroke-linecap="round" stroke-linejoin="round"/>
</g>
<defs>
<clipPath id="clip0_502_471">
<rect width="52" height="52" fill="white" transform="translate(24 24)"/>
</clipPath>
</defs>
</svg>
