<svg width="100" height="100" viewBox="0 0 100 100" fill="none" xmlns="http://www.w3.org/2000/svg">
<path d="M45 2.88675C48.094 1.10042 51.906 1.10042 55 2.88675L88.3013 22.1132C91.3953 23.8996 93.3013 27.2008 93.3013 30.7735V69.2265C93.3013 72.7992 91.3953 76.1004 88.3013 77.8867L55 97.1133C51.906 98.8996 48.094 98.8996 45 97.1133L11.6987 77.8867C8.60472 76.1004 6.69873 72.7992 6.69873 69.2265V30.7735C6.69873 27.2008 8.60472 23.8996 11.6987 22.1132L45 2.88675Z" fill="#659D71"/>
<g clip-path="url(#clip0_502_473)">
<path d="M43.5 34.8333H39.1667C38.0174 34.8333 36.9152 35.2899 36.1026 36.1025C35.2899 36.9152 34.8334 38.0174 34.8334 39.1667V65.1667C34.8334 66.3159 35.2899 67.4181 36.1026 68.2308C36.9152 69.0435 38.0174 69.5 39.1667 69.5H60.8334C61.9826 69.5 63.0848 69.0435 63.8975 68.2308C64.7102 67.4181 65.1667 66.3159 65.1667 65.1667V39.1667C65.1667 38.0174 64.7102 36.9152 63.8975 36.1025C63.0848 35.2899 61.9826 34.8333 60.8334 34.8333H56.5" stroke="white" stroke-width="3" stroke-linecap="round" stroke-linejoin="round"/>
<path d="M52.1667 30.5H47.8333C45.4401 30.5 43.5 32.4401 43.5 34.8333C43.5 37.2266 45.4401 39.1667 47.8333 39.1667H52.1667C54.5599 39.1667 56.5 37.2266 56.5 34.8333C56.5 32.4401 54.5599 30.5 52.1667 30.5Z" stroke="white" stroke-width="3" stroke-linecap="round" stroke-linejoin="round"/>
<path d="M54.3333 47.8333H48.9166C48.0547 47.8333 47.228 48.1758 46.6185 48.7852C46.009 49.3947 45.6666 50.2214 45.6666 51.0833C45.6666 51.9453 46.009 52.7719 46.6185 53.3814C47.228 53.9909 48.0547 54.3333 48.9166 54.3333H51.0833C51.9452 54.3333 52.7719 54.6758 53.3814 55.2852C53.9909 55.8947 54.3333 56.7214 54.3333 57.5833C54.3333 58.4453 53.9909 59.2719 53.3814 59.8814C52.7719 60.4909 51.9452 60.8333 51.0833 60.8333H45.6666" stroke="white" stroke-width="3" stroke-linecap="round" stroke-linejoin="round"/>
<path d="M50 60.8333V63M50 45.6667V47.8333" stroke="white" stroke-width="3" stroke-linecap="round" stroke-linejoin="round"/>
</g>
<defs>
<clipPath id="clip0_502_473">
<rect width="52" height="52" fill="white" transform="translate(24 24)"/>
</clipPath>
</defs>
</svg>
