<svg width="100" height="100" viewBox="0 0 100 100" fill="none" xmlns="http://www.w3.org/2000/svg">
<path d="M45 2.88675C48.094 1.10042 51.906 1.10042 55 2.88675L88.3013 22.1132C91.3953 23.8996 93.3013 27.2008 93.3013 30.7735V69.2265C93.3013 72.7992 91.3953 76.1004 88.3013 77.8867L55 97.1133C51.906 98.8996 48.094 98.8996 45 97.1133L11.6987 77.8867C8.60472 76.1004 6.69873 72.7992 6.69873 69.2265V30.7735C6.69873 27.2008 8.60472 23.8996 11.6987 22.1132L45 2.88675Z" fill="#C576E1"/>
<g clip-path="url(#clip0_502_472)">
<path d="M65.1667 43.5H43.5C41.1068 43.5 39.1667 45.4401 39.1667 47.8333V60.8333C39.1667 63.2266 41.1068 65.1667 43.5 65.1667H65.1667C67.5599 65.1667 69.5 63.2266 69.5 60.8333V47.8333C69.5 45.4401 67.5599 43.5 65.1667 43.5Z" stroke="white" stroke-width="3" stroke-linecap="round" stroke-linejoin="round"/>
<path d="M54.3333 58.6667C56.7266 58.6667 58.6667 56.7266 58.6667 54.3333C58.6667 51.9401 56.7266 50 54.3333 50C51.9401 50 50 51.9401 50 54.3333C50 56.7266 51.9401 58.6667 54.3333 58.6667Z" stroke="white" stroke-width="3" stroke-linecap="round" stroke-linejoin="round"/>
<path d="M60.8333 43.5V39.1666C60.8333 38.0174 60.3768 36.9152 59.5641 36.1025C58.7515 35.2899 57.6493 34.8333 56.5 34.8333H34.8333C33.6841 34.8333 32.5819 35.2899 31.7692 36.1025C30.9565 36.9152 30.5 38.0174 30.5 39.1666V52.1666C30.5 53.3159 30.9565 54.4181 31.7692 55.2308C32.5819 56.0434 33.6841 56.5 34.8333 56.5H39.1667" stroke="white" stroke-width="3" stroke-linecap="round" stroke-linejoin="round"/>
</g>
<defs>
<clipPath id="clip0_502_472">
<rect width="52" height="52" fill="white" transform="translate(24 24)"/>
</clipPath>
</defs>
</svg>
