<svg width="100" height="100" viewBox="0 0 100 100" fill="none" xmlns="http://www.w3.org/2000/svg">
<path d="M45 2.88675C48.094 1.10042 51.906 1.10042 55 2.88675L88.3013 22.1132C91.3953 23.8996 93.3013 27.2008 93.3013 30.7735V69.2265C93.3013 72.7992 91.3953 76.1004 88.3013 77.8867L55 97.1133C51.906 98.8996 48.094 98.8996 45 97.1133L11.6987 77.8867C8.60472 76.1004 6.69873 72.7992 6.69873 69.2265V30.7735C6.69873 27.2008 8.60472 23.8996 11.6987 22.1132L45 2.88675Z" fill="#B28DED"/>
<g clip-path="url(#clip0_502_469)">
<path d="M50 30.5L67.3333 40.25V59.75L50 69.5L32.6666 59.75V40.25L50 30.5Z" stroke="white" stroke-width="3" stroke-linecap="round" stroke-linejoin="round"/>
<path d="M50 50L67.3333 40.25" stroke="white" stroke-width="3" stroke-linecap="round" stroke-linejoin="round"/>
<path d="M50 50V69.5" stroke="white" stroke-width="3" stroke-linecap="round" stroke-linejoin="round"/>
<path d="M50 50L32.6666 40.25" stroke="white" stroke-width="3" stroke-linecap="round" stroke-linejoin="round"/>
<path d="M58.6667 35.375L41.3334 45.125" stroke="white" stroke-width="3" stroke-linecap="round" stroke-linejoin="round"/>
</g>
<defs>
<clipPath id="clip0_502_469">
<rect width="52" height="52" fill="white" transform="translate(24 24)"/>
</clipPath>
</defs>
</svg>
