<svg width="100" height="100" viewBox="0 0 100 100" fill="none" xmlns="http://www.w3.org/2000/svg">
<path d="M45 2.88675C48.094 1.10042 51.906 1.10042 55 2.88675L88.3013 22.1132C91.3953 23.8996 93.3013 27.2008 93.3013 30.7735V69.2265C93.3013 72.7992 91.3953 76.1004 88.3013 77.8867L55 97.1133C51.906 98.8996 48.094 98.8996 45 97.1133L11.6987 77.8867C8.60472 76.1004 6.69873 72.7992 6.69873 69.2265V30.7735C6.69873 27.2008 8.60472 23.8996 11.6987 22.1132L45 2.88675Z" fill="#8BC55D"/>
<g clip-path="url(#clip0_502_474)">
<path d="M34.8334 69.5V34.8333C34.8334 33.6841 35.2899 32.5819 36.1026 31.7692C36.9152 30.9565 38.0174 30.5 39.1667 30.5H60.8334C61.9826 30.5 63.0848 30.9565 63.8975 31.7692C64.7102 32.5819 65.1667 33.6841 65.1667 34.8333V69.5L58.6667 65.1667L54.3334 69.5L50 65.1667L45.6667 69.5L41.3334 65.1667L34.8334 69.5Z" stroke="white" stroke-width="3" stroke-linecap="round" stroke-linejoin="round"/>
<path d="M54.3333 41.3333H48.9166C48.0547 41.3333 47.228 41.6758 46.6185 42.2852C46.009 42.8947 45.6666 43.7214 45.6666 44.5833C45.6666 45.4453 46.009 46.2719 46.6185 46.8814C47.228 47.4909 48.0547 47.8333 48.9166 47.8333H51.0833C51.9452 47.8333 52.7719 48.1758 53.3814 48.7852C53.9909 49.3947 54.3333 50.2214 54.3333 51.0833C54.3333 51.9453 53.9909 52.7719 53.3814 53.3814C52.7719 53.9909 51.9452 54.3333 51.0833 54.3333H45.6666M50 54.3333V57.5833M50 38.0833V41.3333" stroke="white" stroke-width="3" stroke-linecap="round" stroke-linejoin="round"/>
</g>
<defs>
<clipPath id="clip0_502_474">
<rect width="52" height="52" fill="white" transform="translate(24 24)"/>
</clipPath>
</defs>
</svg>
