<svg width="100" height="100" viewBox="0 0 100 100" fill="none" xmlns="http://www.w3.org/2000/svg">
<path d="M45 2.88675C48.094 1.10042 51.906 1.10042 55 2.88675L88.3013 22.1132C91.3953 23.8996 93.3013 27.2008 93.3013 30.7735V69.2265C93.3013 72.7992 91.3953 76.1004 88.3013 77.8867L55 97.1133C51.906 98.8996 48.094 98.8996 45 97.1133L11.6987 77.8867C8.60472 76.1004 6.69873 72.7992 6.69873 69.2265V30.7735C6.69873 27.2008 8.60472 23.8996 11.6987 22.1132L45 2.88675Z" fill="#FFA6AA"/>
<g clip-path="url(#clip0_502_468)">
<path d="M43.5 47.8333C48.2865 47.8333 52.1667 43.9531 52.1667 39.1667C52.1667 34.3802 48.2865 30.5 43.5 30.5C38.7136 30.5 34.8334 34.3802 34.8334 39.1667C34.8334 43.9531 38.7136 47.8333 43.5 47.8333Z" stroke="white" stroke-width="3" stroke-linecap="round" stroke-linejoin="round"/>
<path d="M30.5 69.5V65.1667C30.5 62.8681 31.4131 60.6637 33.0384 59.0384C34.6637 57.4131 36.8681 56.5 39.1667 56.5H47.8333C50.1319 56.5 52.3363 57.4131 53.9616 59.0384C55.5869 60.6637 56.5 62.8681 56.5 65.1667V69.5" stroke="white" stroke-width="3" stroke-linecap="round" stroke-linejoin="round"/>
<path d="M58.6666 30.7817C60.5309 31.259 62.1832 32.3432 63.3632 33.8633C64.5431 35.3835 65.1836 37.2531 65.1836 39.1775C65.1836 41.1019 64.5431 42.9715 63.3632 44.4917C62.1832 46.0118 60.5309 47.096 58.6666 47.5733" stroke="white" stroke-width="3" stroke-linecap="round" stroke-linejoin="round"/>
<path d="M69.5 69.5V65.1667C69.489 63.2539 68.8455 61.3984 67.6697 59.8896C66.494 58.3807 64.8521 57.3032 63 56.825" stroke="white" stroke-width="3" stroke-linecap="round" stroke-linejoin="round"/>
</g>
<defs>
<clipPath id="clip0_502_468">
<rect width="52" height="52" fill="white" transform="translate(24 24)"/>
</clipPath>
</defs>
</svg>
