<svg width="30" height="30" viewBox="0 0 30 30" fill="none" xmlns="http://www.w3.org/2000/svg">
<g clip-path="url(#clip0_44_2512)">
<path d="M3.75 10C3.75 9.00544 4.14509 8.05161 4.84835 7.34835C5.55161 6.64509 6.50544 6.25 7.5 6.25H22.5C23.4946 6.25 24.4484 6.64509 25.1517 7.34835C25.8549 8.05161 26.25 9.00544 26.25 10V20C26.25 20.9946 25.8549 21.9484 25.1517 22.6517C24.4484 23.3549 23.4946 23.75 22.5 23.75H7.5C6.50544 23.75 5.55161 23.3549 4.84835 22.6517C4.14509 21.9484 3.75 20.9946 3.75 20V10Z" stroke="#535763" stroke-width="2" stroke-linecap="round" stroke-linejoin="round"/>
<path d="M8.75 20L12.5 16.25L16.25 20" stroke="#535763" stroke-width="2" stroke-linecap="round" stroke-linejoin="round"/>
<path d="M10 16.2501C9.01375 16.2501 7.5 15.4101 7.5 14.3751C7.5 13.3401 8.38875 12.5001 9.375 12.5001C10.785 12.4751 11.9712 13.9626 12.5 16.2501C13.0288 13.9626 14.215 12.4751 15.625 12.5001C16.6112 12.5001 17.5 13.3401 17.5 14.3751C17.5 15.4101 15.9862 16.2501 15 16.2501H10Z" stroke="#535763" stroke-width="2" stroke-linecap="round" stroke-linejoin="round"/>
</g>
<defs>
<clipPath id="clip0_44_2512">
<rect width="30" height="30" fill="white"/>
</clipPath>
</defs>
</svg>
