<svg width="18" height="10" viewBox="0 0 18 10" fill="none" xmlns="http://www.w3.org/2000/svg">
<path d="M8.99974 4.99935C8.54246 5.887 7.92939 6.68524 7.18974 7.35602C6.7236 7.82229 6.12966 8.13986 5.48303 8.26856C4.8364 8.39726 4.16612 8.33131 3.55698 8.07905C2.94783 7.82678 2.42718 7.39954 2.06086 6.85136C1.69455 6.30317 1.49902 5.65866 1.49902 4.99935C1.49902 4.34004 1.69455 3.69553 2.06086 3.14735C2.42718 2.59916 2.94783 2.17192 3.55698 1.91966C4.16612 1.66739 4.8364 1.60144 5.48303 1.73014C6.12966 1.85884 6.7236 2.17641 7.18974 2.64268C7.92939 3.31346 8.54246 4.1117 8.99974 4.99935ZM8.99974 4.99935C9.45701 4.1117 10.0701 3.31346 10.8097 2.64268C11.2759 2.17641 11.8698 1.85884 12.5164 1.73014C13.1631 1.60144 13.8333 1.66739 14.4425 1.91966C15.0516 2.17192 15.5723 2.59916 15.9386 3.14735C16.3049 3.69553 16.5004 4.34004 16.5004 4.99935C16.5004 5.65866 16.3049 6.30317 15.9386 6.85136C15.5723 7.39954 15.0516 7.82678 14.4425 8.07905C13.8333 8.33131 13.1631 8.39726 12.5164 8.26856C11.8698 8.13986 11.2759 7.82229 10.8097 7.35602C10.0701 6.68524 9.45701 5.887 8.99974 4.99935Z" stroke="black" stroke-width="1.5" stroke-linecap="round" stroke-linejoin="round"/>
</svg>
