<svg width="20" height="20" viewBox="0 0 20 20" fill="none" xmlns="http://www.w3.org/2000/svg">
<g clip-path="url(#clip0_929_1530)">
<path d="M6.80402 6.81244C6.3058 6.66062 5.77893 6.62766 5.26567 6.7162C4.75241 6.80475 4.26704 7.01234 3.84849 7.32232C3.42994 7.63231 3.08985 8.03606 2.8555 8.50121C2.62115 8.96635 2.49906 9.47993 2.49902 10.0008C2.499 10.6601 2.69451 11.3047 3.06083 11.8529C3.42716 12.4011 3.94783 12.8283 4.557 13.0806C5.16617 13.3329 5.83647 13.3988 6.48312 13.2701C7.12978 13.1414 7.72373 12.8238 8.18986 12.3574C8.92951 11.6867 9.54259 10.8884 9.99986 10.0008C10.4571 10.8884 11.0702 11.6867 11.8099 12.3574C12.1851 12.7327 12.6445 13.013 13.1499 13.1749M11.3974 8.04494C11.5302 7.90663 11.6678 7.77294 11.8099 7.64411C12.1364 7.31707 12.5274 7.0615 12.958 6.89365C13.3886 6.72579 13.8494 6.64931 14.3111 6.66906C14.7729 6.68881 15.2254 6.80436 15.6401 7.00838C16.0548 7.2124 16.4226 7.50042 16.72 7.85415C17.0174 8.20788 17.238 8.6196 17.3678 9.06316C17.4976 9.50671 17.5338 9.97241 17.474 10.4307C17.4142 10.889 17.2597 11.3298 17.0204 11.7252C16.7812 12.1206 16.4623 12.4619 16.084 12.7274" stroke="black" stroke-width="1.5" stroke-linecap="round" stroke-linejoin="round"/>
<path d="M2.5 2.5L17.5 17.5" stroke="black" stroke-width="1.5" stroke-linecap="round" stroke-linejoin="round"/>
</g>
<defs>
<clipPath id="clip0_929_1530">
<rect width="20" height="20" fill="white"/>
</clipPath>
</defs>
</svg>
