<svg width="30" height="30" viewBox="0 0 30 30" fill="none" xmlns="http://www.w3.org/2000/svg">
<g clip-path="url(#clip0_47_8281)">
<path d="M8.75 13.75C8.75 13.087 9.01339 12.4511 9.48223 11.9822C9.95107 11.5134 10.587 11.25 11.25 11.25H23.75C24.413 11.25 25.0489 11.5134 25.5178 11.9822C25.9866 12.4511 26.25 13.087 26.25 13.75V21.25C26.25 21.913 25.9866 22.5489 25.5178 23.0178C25.0489 23.4866 24.413 23.75 23.75 23.75H11.25C10.587 23.75 9.95107 23.4866 9.48223 23.0178C9.01339 22.5489 8.75 21.913 8.75 21.25V13.75Z" stroke="#535763" stroke-width="2" stroke-linecap="round" stroke-linejoin="round"/>
<path d="M15 17.5C15 18.163 15.2634 18.7989 15.7322 19.2678C16.2011 19.7366 16.837 20 17.5 20C18.163 20 18.7989 19.7366 19.2678 19.2678C19.7366 18.7989 20 18.163 20 17.5C20 16.837 19.7366 16.2011 19.2678 15.7322C18.7989 15.2634 18.163 15 17.5 15C16.837 15 16.2011 15.2634 15.7322 15.7322C15.2634 16.2011 15 16.837 15 17.5Z" stroke="#535763" stroke-width="2" stroke-linecap="round" stroke-linejoin="round"/>
<path d="M21.25 11.25V8.75C21.25 8.08696 20.9866 7.45107 20.5178 6.98223C20.0489 6.51339 19.413 6.25 18.75 6.25H6.25C5.58696 6.25 4.95107 6.51339 4.48223 6.98223C4.01339 7.45107 3.75 8.08696 3.75 8.75V16.25C3.75 16.913 4.01339 17.5489 4.48223 18.0178C4.95107 18.4866 5.58696 18.75 6.25 18.75H8.75" stroke="#535763" stroke-width="2" stroke-linecap="round" stroke-linejoin="round"/>
</g>
<defs>
<clipPath id="clip0_47_8281">
<rect width="30" height="30" fill="white"/>
</clipPath>
</defs>
</svg>
