<svg width="30" height="30" viewBox="0 0 30 30" fill="none" xmlns="http://www.w3.org/2000/svg">
<g clip-path="url(#clip0_44_568)">
<path d="M9.82375 7.5H6.28125C5.60992 7.5 4.96609 7.76668 4.49139 8.24139C4.01668 8.71609 3.75 9.35992 3.75 10.0312V13.5738C3.75 14.245 4.01625 14.8888 4.49125 15.3638L12.1363 23.0088C12.3713 23.2438 12.6504 23.4303 12.9575 23.5576C13.2646 23.6848 13.5938 23.7503 13.9263 23.7503C14.2587 23.7503 14.5879 23.6848 14.895 23.5576C15.2021 23.4303 15.4812 23.2438 15.7163 23.0088L19.2588 19.4663C19.4938 19.2312 19.6803 18.9521 19.8076 18.645C19.9348 18.3379 20.0003 18.0087 20.0003 17.6763C20.0003 17.3438 19.9348 17.0146 19.8076 16.7075C19.6803 16.4004 19.4938 16.1213 19.2588 15.8863L11.6125 8.24125C11.138 7.76687 10.4947 7.50026 9.82375 7.5Z" stroke="#535763" stroke-width="2" stroke-linecap="round" stroke-linejoin="round"/>
<path d="M21.9663 23.0087L25.5088 19.4662C25.7439 19.2312 25.9304 18.9521 26.0576 18.645C26.1848 18.3378 26.2503 18.0087 26.2503 17.6762C26.2503 17.3438 26.1848 17.0146 26.0576 16.7075C25.9304 16.4003 25.7439 16.1213 25.5088 15.8862L16.6125 6.99121" stroke="#535763" stroke-width="2" stroke-linecap="round" stroke-linejoin="round"/>
<path d="M7.50005 11.25H7.48755" stroke="#535763" stroke-width="2" stroke-linecap="round" stroke-linejoin="round"/>
</g>
<defs>
<clipPath id="clip0_44_568">
<rect width="30" height="30" fill="white"/>
</clipPath>
</defs>
</svg>
