<svg width="24" height="24" viewBox="0 0 24 24" fill="none" xmlns="http://www.w3.org/2000/svg">
<g clip-path="url(#clip0_2901_401)">
<path d="M2.125 20.875L3.84375 16.9167C2.52882 15.0501 1.94028 12.7677 2.18859 10.498C2.4369 8.22831 3.50498 6.12723 5.1924 4.58908C6.87982 3.05094 9.07057 2.18147 11.3535 2.14385C13.6365 2.10623 15.8547 2.90305 17.5919 4.38476C19.329 5.86647 20.4658 7.93122 20.7887 10.1915C21.1117 12.4518 20.5987 14.7523 19.3459 16.6612C18.0932 18.5701 16.1869 19.9563 13.9848 20.5595C11.7826 21.1627 9.43607 20.9415 7.38542 19.9375L2.125 20.875Z" stroke="#535763" stroke-width="2" stroke-linecap="round" stroke-linejoin="round"/>
<path d="M8.375 9.4165C8.375 9.55464 8.42987 9.68711 8.52755 9.78479C8.62522 9.88246 8.7577 9.93734 8.89583 9.93734C9.03397 9.93734 9.16644 9.88246 9.26412 9.78479C9.36179 9.68711 9.41667 9.55464 9.41667 9.4165V8.37484C9.41667 8.2367 9.36179 8.10423 9.26412 8.00655C9.16644 7.90888 9.03397 7.854 8.89583 7.854C8.7577 7.854 8.62522 7.90888 8.52755 8.00655C8.42987 8.10423 8.375 8.2367 8.375 8.37484V9.4165ZM8.375 9.4165C8.375 10.7978 8.92373 12.1226 9.90049 13.0994C10.8772 14.0761 12.202 14.6248 13.5833 14.6248M13.5833 14.6248H14.625C14.7631 14.6248 14.8956 14.57 14.9933 14.4723C15.091 14.3746 15.1458 14.2421 15.1458 14.104C15.1458 13.9659 15.091 13.8334 14.9933 13.7357C14.8956 13.638 14.7631 13.5832 14.625 13.5832H13.5833C13.4452 13.5832 13.3127 13.638 13.215 13.7357C13.1174 13.8334 13.0625 13.9659 13.0625 14.104C13.0625 14.2421 13.1174 14.3746 13.215 14.4723C13.3127 14.57 13.4452 14.6248 13.5833 14.6248Z" stroke="#535763" stroke-width="2" stroke-linecap="round" stroke-linejoin="round"/>
</g>
<defs>
<clipPath id="clip0_2901_401">
<rect width="25" height="25" fill="white" transform="translate(-1 -1)"/>
</clipPath>
</defs>
</svg>
