<svg width="28" height="28" viewBox="0 0 28 28" fill="none" xmlns="http://www.w3.org/2000/svg">
<g clip-path="url(#clip0_47_16874)">
<path d="M11.6668 3.73372C9.84182 4.1568 8.16323 5.06045 6.80519 6.35095C5.44714 7.64144 4.45909 9.27177 3.94353 11.0728C3.42796 12.8739 3.40366 14.7801 3.87313 16.5938C4.34261 18.4074 5.28876 20.0624 6.61347 21.3871C7.93817 22.7118 9.59316 23.6579 11.4068 24.1274C13.2204 24.5969 15.1266 24.5726 16.9277 24.057C18.7288 23.5415 20.3591 22.5534 21.6496 21.1954C22.9401 19.8373 23.8437 18.1587 24.2668 16.3337C24.2668 16.0243 24.1439 15.7276 23.9251 15.5088C23.7063 15.29 23.4096 15.1671 23.1002 15.1671H18.6668C18.4547 15.9826 18.031 16.7276 17.4384 17.3267C16.8459 17.9258 16.1056 18.3577 15.2925 18.5788C14.4794 18.7999 13.6223 18.8023 12.808 18.5857C11.9937 18.3691 11.251 17.9412 10.6552 17.3454C10.0593 16.7495 9.63148 16.0069 9.41489 15.1926C9.1983 14.3782 9.20066 13.5212 9.42174 12.708C9.64282 11.8949 10.0748 11.1547 10.6739 10.5621C11.273 9.96958 12.018 9.54582 12.8335 9.33372V4.66705C12.819 4.52883 12.7772 4.39486 12.7105 4.27292C12.6439 4.15097 12.5537 4.04347 12.4451 3.95665C12.3366 3.86983 12.2119 3.80542 12.0783 3.76715C11.9447 3.72888 11.8049 3.71752 11.6668 3.73372Z" stroke="#2C3E50" stroke-width="2" stroke-linecap="round" stroke-linejoin="round"/>
<path d="M17.5 4.08398C18.9813 4.60558 20.3268 5.45283 21.4373 6.56334C22.5478 7.67384 23.3951 9.01931 23.9167 10.5007H18.6667C18.309 10.0818 17.9189 9.69167 17.5 9.33398V4.08398Z" stroke="#2C3E50" stroke-width="2" stroke-linecap="round" stroke-linejoin="round"/>
</g>
<defs>
<clipPath id="clip0_47_16874">
<rect width="28" height="28" fill="white"/>
</clipPath>
</defs>
</svg>
