<svg width="26" height="26" viewBox="0 0 26 26" fill="none" xmlns="http://www.w3.org/2000/svg">
<g clip-path="url(#clip0_47_17413)">
<path d="M13 22.75C11.7196 22.75 10.4518 22.4978 9.26884 22.0078C8.08591 21.5178 7.01108 20.7997 6.10571 19.8943C5.20034 18.9889 4.48216 17.9141 3.99217 16.7312C3.50219 15.5482 3.25 14.2804 3.25 13C3.25 11.7196 3.50219 10.4518 3.99217 9.26884C4.48216 8.08591 5.20034 7.01108 6.10571 6.10571C7.01108 5.20034 8.08591 4.48216 9.26884 3.99217C10.4518 3.50219 11.7196 3.25 13 3.25C15.5859 3.25 18.0658 4.16309 19.8943 5.78841C21.7228 7.41372 22.75 9.61812 22.75 11.9167C22.75 13.0659 22.2364 14.1681 21.3221 14.9808C20.4079 15.7935 19.1679 16.25 17.875 16.25H15.1667C14.6833 16.2422 14.2113 16.3963 13.8256 16.6877C13.44 16.9791 13.1628 17.3911 13.0382 17.8581C12.9137 18.3252 12.9489 18.8205 13.1383 19.2652C13.3277 19.71 13.6603 20.0786 14.0833 20.3125C14.2996 20.5121 14.448 20.7744 14.5075 21.0627C14.567 21.3509 14.5348 21.6505 14.4152 21.9195C14.2957 22.1885 14.0949 22.4132 13.8411 22.5622C13.5872 22.7111 13.2931 22.7768 13 22.75Z" stroke="#535763" stroke-width="2" stroke-linecap="round" stroke-linejoin="round"/>
<path d="M8.12516 11.9173C8.42432 11.9173 8.66683 11.6748 8.66683 11.3757C8.66683 11.0765 8.42432 10.834 8.12516 10.834C7.82601 10.834 7.5835 11.0765 7.5835 11.3757C7.5835 11.6748 7.82601 11.9173 8.12516 11.9173Z" fill="#535763" stroke="#535763" stroke-width="2" stroke-linecap="round" stroke-linejoin="round"/>
<path d="M13.0002 8.66732C13.2993 8.66732 13.5418 8.42481 13.5418 8.12565C13.5418 7.8265 13.2993 7.58398 13.0002 7.58398C12.701 7.58398 12.4585 7.8265 12.4585 8.12565C12.4585 8.42481 12.701 8.66732 13.0002 8.66732Z" fill="#535763" stroke="#535763" stroke-width="2" stroke-linecap="round" stroke-linejoin="round"/>
<path d="M17.8752 11.9173C18.1743 11.9173 18.4168 11.6748 18.4168 11.3757C18.4168 11.0765 18.1743 10.834 17.8752 10.834C17.576 10.834 17.3335 11.0765 17.3335 11.3757C17.3335 11.6748 17.576 11.9173 17.8752 11.9173Z" fill="#535763" stroke="#535763" stroke-width="2" stroke-linecap="round" stroke-linejoin="round"/>
</g>
<defs>
<clipPath id="clip0_47_17413">
<rect width="26" height="26" fill="white"/>
</clipPath>
</defs>
</svg>
