<svg width="18" height="30" viewBox="0 0 18 30" fill="none" xmlns="http://www.w3.org/2000/svg">
<path d="M16.0501 9.00002C15.7515 8.15287 15.2063 7.41446 14.4845 6.87981C13.7627 6.34516 12.8975 6.03875 12.0001 6H6.00003C4.80655 6 3.66195 6.47411 2.81803 7.31803C1.97411 8.16195 1.5 9.30655 1.5 10.5C1.5 11.6935 1.97411 12.8381 2.81803 13.682C3.66195 14.526 4.80655 15.0001 6.00003 15.0001H12.0001C13.1936 15.0001 14.3382 15.4742 15.1821 16.3181C16.026 17.162 16.5001 18.3066 16.5001 19.5001C16.5001 20.6936 16.026 21.8382 15.1821 22.6821C14.3382 23.526 13.1936 24.0001 12.0001 24.0001H6.00003C5.10264 23.9614 4.23738 23.655 3.51561 23.1203C2.79384 22.5857 2.24858 21.8473 1.95 21.0001" stroke="#535763" stroke-width="2" stroke-linecap="round" stroke-linejoin="round"/>
<path d="M9 1.5V6.00003M9 24.0002V28.5002" stroke="#535763" stroke-width="2" stroke-linecap="round" stroke-linejoin="round"/>
</svg>
