<svg width="36" height="30" viewBox="0 0 36 30" fill="none" xmlns="http://www.w3.org/2000/svg">
<path d="M21.0813 4.04923C21.914 3.6196 22.835 3.39595 23.7873 3.39595C27.0537 3.39595 29.6733 6.04412 29.7125 9.24487C32.9742 9.66886 35.5 12.4664 35.5 15.8443C35.5 19.5143 32.5181 22.4997 28.8511 22.4997V22.4997H26.681C26.2047 22.4997 25.8193 22.1132 25.8193 21.6376C25.8193 21.1621 26.2047 20.7756 26.681 20.7756H28.8512C31.5661 20.7756 33.7767 18.5633 33.7767 15.8443C33.7767 13.1253 31.5661 10.9131 28.8512 10.9131H28.799C28.5491 10.9131 28.3114 10.8047 28.1476 10.6154C27.9843 10.4268 27.9103 10.1762 27.9461 9.92824M21.0813 4.04923L27.9461 9.92824M21.0813 4.04923C18.0716 -0.40852 11.5596 -0.743114 8.11389 3.47675L8.11387 3.47678C6.78072 5.10963 6.14617 7.16734 6.31121 9.24178C3.03818 9.65541 0.5 12.4587 0.5 15.8446C0.5 19.5143 3.48185 22.5 7.14895 22.5H9.31912C9.79549 22.5 10.1808 22.1135 10.1808 21.6379C10.1808 21.1623 9.79546 20.7758 9.31912 20.7758H7.14895C4.43408 20.7758 2.22344 18.5636 2.22344 15.8446C2.22344 13.1256 4.43408 10.9134 7.14895 10.9134H7.29389C7.83824 10.9134 8.24651 10.4142 8.13843 9.88002L8.13838 9.87981C7.75546 7.99144 8.23302 6.05616 9.44857 4.56754M21.0813 4.04923L9.44857 4.56754M27.9461 9.92824C27.975 9.72577 27.9895 9.52306 27.9895 9.3269C27.9895 7.00721 26.1034 5.11982 23.7874 5.11982C22.8852 5.11982 22.0272 5.40135 21.302 5.93519L21.3019 5.93529C20.8771 6.24776 20.2738 6.10886 20.0284 5.64161L20.0283 5.64143C17.8978 1.58025 12.3337 1.03453 9.44857 4.56754M27.9461 9.92824L9.44857 4.56754" fill="white" stroke="white"/>
<path d="M9.84277 21.3043C9.84277 25.9137 13.5924 29.6632 18.2017 29.6632C22.8111 29.6632 26.5607 25.9136 26.5607 21.3043C26.5607 16.6949 22.8111 12.9453 18.2017 12.9453C13.5923 12.9453 9.84277 16.6949 9.84277 21.3043ZM10.9916 21.3043C10.9916 17.3289 14.2263 14.0942 18.2017 14.0942C22.1771 14.0942 25.4118 17.3288 25.4118 21.3043C25.4118 25.2796 22.1771 28.5144 18.2017 28.5144C14.2264 28.5144 10.9916 25.2797 10.9916 21.3043Z" fill="white" stroke="#F9FFF9" stroke-width="0.5"/>
<path d="M17.8613 24.5683C17.8613 24.8375 18.0796 25.0558 18.3488 25.0558C18.6179 25.0558 18.8363 24.8378 18.8363 24.5683V18.3942C18.8363 18.125 18.618 17.9067 18.3488 17.9067C18.0796 17.9067 17.8613 18.125 17.8613 18.3942V24.5683Z" fill="white" stroke="white" stroke-width="0.5"/>
<path d="M20.4167 20.127L20.5935 19.9502C20.7839 20.1406 20.7839 20.4492 20.5935 20.6396M20.4167 20.127L20.2488 20.7824C20.3726 20.7824 20.4981 20.7352 20.5935 20.6396M20.4167 20.127L20.5935 19.9502L18.6938 18.0505M20.4167 20.127L18.517 18.2273L18.6938 18.0505M20.5935 20.6396L20.4167 20.4628L20.5938 20.6393C20.5937 20.6394 20.5936 20.6395 20.5935 20.6396ZM18.3491 19.0846L16.7943 20.6395C16.7943 20.6395 16.7942 20.6395 16.7942 20.6395L16.7941 20.6396L16.6173 20.4628L18.3491 19.0846ZM18.3491 19.0846L19.9041 20.6396C19.9041 20.6396 19.9041 20.6396 19.9041 20.6396C19.9992 20.7347 20.1245 20.7824 20.2488 20.7824L18.3491 19.0846ZM18.6938 18.0505C18.5035 17.8602 18.1947 17.86 18.0043 18.0506M18.6938 18.0505L18.0043 18.0506M18.0043 18.0506C18.0043 18.0506 18.0043 18.0507 18.0043 18.0507L18.0043 18.0506Z" fill="white" stroke="white" stroke-width="0.5"/>
</svg>
