<svg width="26" height="26" viewBox="0 0 26 26" fill="none" xmlns="http://www.w3.org/2000/svg">
<path d="M21.0501 1.85693H20.8855C20.1134 1.85693 19.3984 2.29137 18.9726 3.01855C18.8162 3.28287 18.4066 3.31639 18.2119 3.08025C17.5639 2.29137 16.7034 1.85693 15.7835 1.85693C14.87 1.85693 14.0097 2.29137 13.361 3.08025C13.1838 3.29557 12.8215 3.29709 12.6432 3.07975C11.9945 2.29137 11.1343 1.85693 10.2207 1.85693C9.30715 1.85693 8.44691 2.29137 7.79818 3.08025C7.60369 3.31842 7.19414 3.28566 7.03773 3.01855C6.61117 2.29137 5.89617 1.85693 5.1243 1.85693H4.94072C3.75016 1.85693 2.78125 2.82584 2.78125 4.01641V21.9831C2.78125 23.1736 3.75016 24.1425 4.94072 24.1425H5.1243C5.89592 24.1425 6.61092 23.7081 7.03824 22.9799C7.19236 22.7151 7.60268 22.6805 7.79818 22.9195C8.44691 23.7079 9.30715 24.1423 10.2207 24.1423C11.1343 24.1423 11.9945 23.7079 12.6432 22.919C12.8215 22.7026 13.1838 22.7031 13.361 22.9195C14.0097 23.7079 14.87 24.1423 15.7899 24.1423C16.7034 24.1423 17.5642 23.7079 18.2116 22.92C18.4079 22.6828 18.8182 22.7169 18.9723 22.9799C19.3987 23.7081 20.1137 24.1425 20.8858 24.1425H21.0503C22.2409 24.1425 23.2098 23.1736 23.2098 21.9831V4.01666C23.2098 2.82584 22.2406 1.85693 21.0501 1.85693ZM21.3525 21.9831C21.3525 22.1499 21.2169 22.2855 21.0501 22.2855H20.8855C20.7296 22.2855 20.6085 22.0991 20.575 22.0415C20.1596 21.3328 19.3915 20.8925 18.5709 20.8925C17.8745 20.8925 17.2212 21.2013 16.7773 21.7403C16.61 21.944 16.2591 22.2852 15.7835 22.2852C15.3143 22.2852 14.9629 21.9435 14.7956 21.7403C13.911 20.6625 12.0943 20.6622 11.2087 21.7398C11.0413 21.9435 10.6899 22.2852 10.2207 22.2852C9.75148 22.2852 9.40008 21.9435 9.23275 21.7403C8.7902 21.2013 8.13639 20.8925 7.43967 20.8925C6.61803 20.8925 5.84996 21.3333 5.43559 22.0415C5.40207 22.0986 5.28045 22.2855 5.12455 22.2855H4.94098C4.77416 22.2855 4.63857 22.1499 4.63857 21.9831V4.01666C4.63857 3.84984 4.77416 3.71426 4.94098 3.71426H5.12455C5.28045 3.71426 5.40207 3.90113 5.43508 3.95725C5.84996 4.66641 6.61803 5.10719 7.43967 5.10719C8.13664 5.10719 8.79045 4.79844 9.23275 4.25965C9.40008 4.05602 9.75148 3.71426 10.2207 3.71426C10.6899 3.71426 11.0413 4.05602 11.2087 4.25914C12.0943 5.33773 13.911 5.33647 14.7956 4.25965C14.9629 4.05602 15.3143 3.71426 15.7899 3.71426C16.2591 3.71426 16.61 4.05576 16.7778 4.26016C17.2212 4.79844 17.8747 5.10719 18.5709 5.10719C19.3915 5.10719 20.1596 4.66691 20.5755 3.95725C20.6085 3.90063 20.7296 3.71426 20.8855 3.71426H21.0501C21.2169 3.71426 21.3525 3.84984 21.3525 4.01666V21.9831Z" fill="#535763"/>
<path d="M6.49545 9.2793H19.4955V11.1364H6.49545V9.2793ZM6.49316 13.9192H15.7788V15.7823H6.49316V13.9192Z" fill="#535763"/>
</svg>
