<svg width="32" height="32" viewBox="0 0 32 32" fill="none" xmlns="http://www.w3.org/2000/svg">
<g clip-path="url(#clip0_2905_396)">
<path d="M12.0003 6.66699H9.33366C8.62641 6.66699 7.94814 6.94794 7.44804 7.44804C6.94794 7.94814 6.66699 8.62641 6.66699 9.33366V25.3337C6.66699 26.0409 6.94794 26.7192 7.44804 27.2193C7.94814 27.7194 8.62641 28.0003 9.33366 28.0003H22.667C23.3742 28.0003 24.0525 27.7194 24.5526 27.2193C25.0527 26.7192 25.3337 26.0409 25.3337 25.3337V9.33366C25.3337 8.62641 25.0527 7.94814 24.5526 7.44804C24.0525 6.94794 23.3742 6.66699 22.667 6.66699H20.0003" stroke="white" stroke-width="2" stroke-linecap="round" stroke-linejoin="round"/>
<path d="M17.3333 4H14.6667C13.1939 4 12 5.19391 12 6.66667C12 8.13943 13.1939 9.33333 14.6667 9.33333H17.3333C18.8061 9.33333 20 8.13943 20 6.66667C20 5.19391 18.8061 4 17.3333 4Z" stroke="white" stroke-width="2" stroke-linecap="round" stroke-linejoin="round"/>
<path d="M18.6663 14.667H15.333C14.8026 14.667 14.2939 14.8777 13.9188 15.2528C13.5437 15.6279 13.333 16.1366 13.333 16.667C13.333 17.1974 13.5437 17.7061 13.9188 18.0812C14.2939 18.4563 14.8026 18.667 15.333 18.667H16.6663C17.1968 18.667 17.7055 18.8777 18.0806 19.2528C18.4556 19.6279 18.6663 20.1366 18.6663 20.667C18.6663 21.1974 18.4556 21.7061 18.0806 22.0812C17.7055 22.4563 17.1968 22.667 16.6663 22.667H13.333" stroke="white" stroke-width="2" stroke-linecap="round" stroke-linejoin="round"/>
<path d="M16 22.6663V23.9997M16 13.333V14.6663" stroke="white" stroke-width="2" stroke-linecap="round" stroke-linejoin="round"/>
</g>
<defs>
<clipPath id="clip0_2905_396">
<rect width="32" height="32" fill="white"/>
</clipPath>
</defs>
</svg>
