<svg width="30" height="30" viewBox="0 0 30 30" fill="none" xmlns="http://www.w3.org/2000/svg">
<g clip-path="url(#clip0_47_13902)">
<path d="M15 26.25C21.2132 26.25 26.25 21.2132 26.25 15C26.25 8.7868 21.2132 3.75 15 3.75C8.7868 3.75 3.75 8.7868 3.75 15C3.75 21.2132 8.7868 26.25 15 26.25Z" stroke="#535763" stroke-width="2" stroke-linecap="round" stroke-linejoin="round"/>
<path d="M18.5 11.2504C18.2736 10.8576 17.9446 10.5338 17.5482 10.3136C17.1519 10.0934 16.7031 9.98518 16.25 10.0004H13.75C13.087 10.0004 12.4511 10.2638 11.9822 10.7327C11.5134 11.2015 11.25 11.8374 11.25 12.5004C11.25 13.1635 11.5134 13.7994 11.9822 14.2682C12.4511 14.737 13.087 15.0004 13.75 15.0004H16.25C16.913 15.0004 17.5489 15.2638 18.0178 15.7327C18.4866 16.2015 18.75 16.8374 18.75 17.5004C18.75 18.1635 18.4866 18.7994 18.0178 19.2682C17.5489 19.737 16.913 20.0004 16.25 20.0004H13.75C13.2969 20.0157 12.8481 19.9074 12.4518 19.6872C12.0554 19.4671 11.7264 19.1432 11.5 18.7504" stroke="#535763" stroke-width="2" stroke-linecap="round" stroke-linejoin="round"/>
<path d="M15 7.5V10M15 20V22.5" stroke="#535763" stroke-width="2" stroke-linecap="round" stroke-linejoin="round"/>
</g>
<defs>
<clipPath id="clip0_47_13902">
<rect width="30" height="30" fill="white"/>
</clipPath>
</defs>
</svg>
