<svg width="30" height="30" viewBox="0 0 30 30" fill="none" xmlns="http://www.w3.org/2000/svg">
<g clip-path="url(#clip0_47_16200)">
<path d="M11.25 18.75L18.75 11.25" stroke="#535763" stroke-width="2" stroke-linecap="round" stroke-linejoin="round"/>
<path d="M11.875 12.5C12.2202 12.5 12.5 12.2202 12.5 11.875C12.5 11.5298 12.2202 11.25 11.875 11.25C11.5298 11.25 11.25 11.5298 11.25 11.875C11.25 12.2202 11.5298 12.5 11.875 12.5Z" fill="#535763" stroke="#535763" stroke-width="2" stroke-linecap="round" stroke-linejoin="round"/>
<path d="M18.125 18.75C18.4702 18.75 18.75 18.4702 18.75 18.125C18.75 17.7798 18.4702 17.5 18.125 17.5C17.7798 17.5 17.5 17.7798 17.5 18.125C17.5 18.4702 17.7798 18.75 18.125 18.75Z" fill="#535763" stroke="#535763" stroke-width="2" stroke-linecap="round" stroke-linejoin="round"/>
<path d="M6.2496 9.00009C6.2496 8.27074 6.53933 7.57127 7.05506 7.05554C7.57078 6.53982 8.27025 6.25009 8.9996 6.25009H10.2496C10.9757 6.24967 11.6722 5.96209 12.1871 5.45009L13.0621 4.57509C13.3177 4.31809 13.6215 4.11414 13.9562 3.97497C14.2908 3.8358 14.6497 3.76416 15.0121 3.76416C15.3745 3.76416 15.7334 3.8358 16.068 3.97497C16.4027 4.11414 16.7065 4.31809 16.9621 4.57509L17.8371 5.45009C18.352 5.96209 19.0485 6.24967 19.7746 6.25009H21.0246C21.7539 6.25009 22.4534 6.53982 22.9691 7.05554C23.4849 7.57127 23.7746 8.27074 23.7746 9.00009V10.2501C23.775 10.9762 24.0626 11.6727 24.5746 12.1876L25.4496 13.0626C25.7066 13.3181 25.9105 13.622 26.0497 13.9566C26.1889 14.2913 26.2605 14.6502 26.2605 15.0126C26.2605 15.375 26.1889 15.7339 26.0497 16.0685C25.9105 16.4032 25.7066 16.707 25.4496 16.9626L24.5746 17.8376C24.0626 18.3525 23.775 19.049 23.7746 19.7751V21.0251C23.7746 21.7544 23.4849 22.4539 22.9691 22.9696C22.4534 23.4854 21.7539 23.7751 21.0246 23.7751H19.7746C19.0485 23.7755 18.352 24.0631 17.8371 24.5751L16.9621 25.4501C16.7065 25.7071 16.4027 25.911 16.068 26.0502C15.7334 26.1894 15.3745 26.261 15.0121 26.261C14.6497 26.261 14.2908 26.1894 13.9562 26.0502C13.6215 25.911 13.3177 25.7071 13.0621 25.4501L12.1871 24.5751C11.6722 24.0631 10.9757 23.7755 10.2496 23.7751H8.9996C8.27025 23.7751 7.57078 23.4854 7.05506 22.9696C6.53933 22.4539 6.2496 21.7544 6.2496 21.0251V19.7751C6.24918 19.049 5.9616 18.3525 5.4496 17.8376L4.5746 16.9626C4.3176 16.707 4.11365 16.4032 3.97448 16.0685C3.83532 15.7339 3.76367 15.375 3.76367 15.0126C3.76367 14.6502 3.83532 14.2913 3.97448 13.9566C4.11365 13.622 4.3176 13.3181 4.5746 13.0626L5.4496 12.1876C5.9616 11.6727 6.24918 10.9762 6.2496 10.2501V9.00009" stroke="#535763" stroke-width="2" stroke-linecap="round" stroke-linejoin="round"/>
</g>
<defs>
<clipPath id="clip0_47_16200">
<rect width="30" height="30" fill="white"/>
</clipPath>
</defs>
</svg>
