<svg width="30" height="30" viewBox="0 0 30 30" fill="none" xmlns="http://www.w3.org/2000/svg">
<g clip-path="url(#clip0_47_13967)">
<path d="M10 6.25H7.5C6.83696 6.25 6.20107 6.51339 5.73223 6.98223C5.26339 7.45107 5 8.08696 5 8.75V23.75C5 24.413 5.26339 25.0489 5.73223 25.5178C6.20107 25.9866 6.83696 26.25 7.5 26.25H14.6212" stroke="#535763" stroke-width="2" stroke-linecap="round" stroke-linejoin="round"/>
<path d="M22.5 17.5V22.5H27.5" stroke="#535763" stroke-width="2" stroke-linecap="round" stroke-linejoin="round"/>
<path d="M22.5 13.75V8.75C22.5 8.08696 22.2366 7.45107 21.7678 6.98223C21.2989 6.51339 20.663 6.25 20 6.25H17.5" stroke="#535763" stroke-width="2" stroke-linecap="round" stroke-linejoin="round"/>
<path d="M15 3.75H12.5C11.1193 3.75 10 4.86929 10 6.25C10 7.63071 11.1193 8.75 12.5 8.75H15C16.3807 8.75 17.5 7.63071 17.5 6.25C17.5 4.86929 16.3807 3.75 15 3.75Z" stroke="#535763" stroke-width="2" stroke-linecap="round" stroke-linejoin="round"/>
<path d="M22.5 27.5C25.2614 27.5 27.5 25.2614 27.5 22.5C27.5 19.7386 25.2614 17.5 22.5 17.5C19.7386 17.5 17.5 19.7386 17.5 22.5C17.5 25.2614 19.7386 27.5 22.5 27.5Z" stroke="#535763" stroke-width="2" stroke-linecap="round" stroke-linejoin="round"/>
<path d="M10 13.75H15" stroke="#535763" stroke-width="2" stroke-linecap="round" stroke-linejoin="round"/>
<path d="M10 18.75H13.75" stroke="#535763" stroke-width="2" stroke-linecap="round" stroke-linejoin="round"/>
</g>
<defs>
<clipPath id="clip0_47_13967">
<rect width="30" height="30" fill="white"/>
</clipPath>
</defs>
</svg>
