<svg width="32" height="32" viewBox="0 0 32 32" fill="none" xmlns="http://www.w3.org/2000/svg">
<g clip-path="url(#clip0_47_9209)">
<path d="M8 20C10.2091 20 12 18.2091 12 16C12 13.7909 10.2091 12 8 12C5.79086 12 4 13.7909 4 16C4 18.2091 5.79086 20 8 20Z" stroke="white" stroke-width="2.75" stroke-linecap="round" stroke-linejoin="round"/>
<path d="M24 12C26.2091 12 28 10.2091 28 8C28 5.79086 26.2091 4 24 4C21.7909 4 20 5.79086 20 8C20 10.2091 21.7909 12 24 12Z" stroke="white" stroke-width="2.75" stroke-linecap="round" stroke-linejoin="round"/>
<path d="M24 28C26.2091 28 28 26.2091 28 24C28 21.7909 26.2091 20 24 20C21.7909 20 20 21.7909 20 24C20 26.2091 21.7909 28 24 28Z" stroke="white" stroke-width="2.75" stroke-linecap="round" stroke-linejoin="round"/>
<path d="M11.5996 14.2667L20.3996 9.7334" stroke="white" stroke-width="2.75" stroke-linecap="round" stroke-linejoin="round"/>
<path d="M11.5996 17.7334L20.3996 22.2667" stroke="white" stroke-width="2.75" stroke-linecap="round" stroke-linejoin="round"/>
</g>
<defs>
<clipPath id="clip0_47_9209">
<rect width="32" height="32" fill="white"/>
</clipPath>
</defs>
</svg>
