<svg width="44" height="44" viewBox="0 0 44 44" fill="none" xmlns="http://www.w3.org/2000/svg">
<g clip-path="url(#clip0_616_823)">
<path d="M21.6242 38.5H9.16667C8.19421 38.5 7.26158 38.1137 6.57394 37.426C5.88631 36.7384 5.5 35.8058 5.5 34.8333V12.8333C5.5 11.8608 5.88631 10.9282 6.57394 10.2406C7.26158 9.55293 8.19421 9.16663 9.16667 9.16663H31.1667C32.1391 9.16663 33.0718 9.55293 33.7594 10.2406C34.447 10.9282 34.8333 11.8608 34.8333 12.8333V20.1666" stroke="white" stroke-width="2.75" stroke-linecap="round" stroke-linejoin="round"/>
<path d="M33 25.6666V33H40.3333" stroke="white" stroke-width="2.75" stroke-linecap="round" stroke-linejoin="round"/>
<path d="M33.0001 40.3333C37.0502 40.3333 40.3334 37.05 40.3334 33C40.3334 28.9499 37.0502 25.6666 33.0001 25.6666C28.95 25.6666 25.6667 28.9499 25.6667 33C25.6667 37.05 28.95 40.3333 33.0001 40.3333Z" stroke="white" stroke-width="2.75" stroke-linecap="round" stroke-linejoin="round"/>
<path d="M27.5 5.5V12.8333" stroke="white" stroke-width="2.75" stroke-linecap="round" stroke-linejoin="round"/>
<path d="M12.8333 5.5V12.8333" stroke="white" stroke-width="2.75" stroke-linecap="round" stroke-linejoin="round"/>
<path d="M5.5 20.1666H34.8333" stroke="white" stroke-width="2.75" stroke-linecap="round" stroke-linejoin="round"/>
</g>
<defs>
<clipPath id="clip0_616_823">
<rect width="44" height="44" fill="white"/>
</clipPath>
</defs>
</svg>
