<svg width="44" height="44" viewBox="0 0 44 44" fill="none" xmlns="http://www.w3.org/2000/svg">
<g clip-path="url(#clip0_616_818)">
<path d="M16.4999 12.8334H10.9999C10.0275 12.8334 9.09483 13.2197 8.40719 13.9073C7.71956 14.5949 7.33325 15.5276 7.33325 16.5V33C7.33325 33.9725 7.71956 34.9051 8.40719 35.5928C9.09483 36.2804 10.0275 36.6667 10.9999 36.6667H27.4999C28.4724 36.6667 29.405 36.2804 30.0926 35.5928C30.7803 34.9051 31.1666 33.9725 31.1666 33V27.5" stroke="white" stroke-width="2.75" stroke-linecap="round" stroke-linejoin="round"/>
<path d="M16.5 27.5H22L37.5833 11.9167C38.3127 11.1873 38.7224 10.1981 38.7224 9.16668C38.7224 8.13522 38.3127 7.14602 37.5833 6.41668C36.854 5.68733 35.8648 5.27759 34.8333 5.27759C33.8019 5.27759 32.8127 5.68733 32.0833 6.41668L16.5 22V27.5Z" stroke="white" stroke-width="2.75" stroke-linecap="round" stroke-linejoin="round"/>
<path d="M29.3333 9.16663L34.8333 14.6666" stroke="white" stroke-width="2.75" stroke-linecap="round" stroke-linejoin="round"/>
</g>
<defs>
<clipPath id="clip0_616_818">
<rect width="44" height="44" fill="white"/>
</clipPath>
</defs>
</svg>
