<svg width="44" height="44" viewBox="0 0 44 44" fill="none" xmlns="http://www.w3.org/2000/svg">
<g clip-path="url(#clip0_13569_118)">
<path d="M18.332 23.8337C18.332 24.8061 18.7183 25.7387 19.406 26.4264C20.0936 27.114 21.0262 27.5003 21.9987 27.5003C22.9712 27.5003 23.9038 27.114 24.5914 26.4264C25.2791 25.7387 25.6654 24.8061 25.6654 23.8337C25.6654 22.8612 25.2791 21.9286 24.5914 21.2409C23.9038 20.5533 22.9712 20.167 21.9987 20.167C21.0262 20.167 20.0936 20.5533 19.406 21.2409C18.7183 21.9286 18.332 22.8612 18.332 23.8337Z" stroke="#2C3E50" stroke-width="2.75" stroke-linecap="round" stroke-linejoin="round"/>
<path d="M14.668 38.5V36.6667C14.668 35.6942 15.0543 34.7616 15.7419 34.0739C16.4295 33.3863 17.3622 33 18.3346 33H25.668C26.6404 33 27.5731 33.3863 28.2607 34.0739C28.9483 34.7616 29.3346 35.6942 29.3346 36.6667V38.5" stroke="#2C3E50" stroke-width="2.75" stroke-linecap="round" stroke-linejoin="round"/>
<path d="M27.5 9.16667C27.5 10.1391 27.8863 11.0718 28.5739 11.7594C29.2616 12.447 30.1942 12.8333 31.1667 12.8333C32.1391 12.8333 33.0718 12.447 33.7594 11.7594C34.447 11.0718 34.8333 10.1391 34.8333 9.16667C34.8333 8.19421 34.447 7.26158 33.7594 6.57394C33.0718 5.88631 32.1391 5.5 31.1667 5.5C30.1942 5.5 29.2616 5.88631 28.5739 6.57394C27.8863 7.26158 27.5 8.19421 27.5 9.16667Z" stroke="#2C3E50" stroke-width="2.75" stroke-linecap="round" stroke-linejoin="round"/>
<path d="M31.168 18.333H34.8346C35.8071 18.333 36.7397 18.7193 37.4274 19.407C38.115 20.0946 38.5013 21.0272 38.5013 21.9997V23.833" stroke="#2C3E50" stroke-width="2.75" stroke-linecap="round" stroke-linejoin="round"/>
<path d="M9.16797 9.16667C9.16797 10.1391 9.55428 11.0718 10.2419 11.7594C10.9295 12.447 11.8622 12.8333 12.8346 12.8333C13.8071 12.8333 14.7397 12.447 15.4274 11.7594C16.115 11.0718 16.5013 10.1391 16.5013 9.16667C16.5013 8.19421 16.115 7.26158 15.4274 6.57394C14.7397 5.88631 13.8071 5.5 12.8346 5.5C11.8622 5.5 10.9295 5.88631 10.2419 6.57394C9.55428 7.26158 9.16797 8.19421 9.16797 9.16667Z" stroke="#2C3E50" stroke-width="2.75" stroke-linecap="round" stroke-linejoin="round"/>
<path d="M5.5 23.833V21.9997C5.5 21.0272 5.88631 20.0946 6.57394 19.407C7.26158 18.7193 8.19421 18.333 9.16667 18.333H12.8333" stroke="#2C3E50" stroke-width="2.75" stroke-linecap="round" stroke-linejoin="round"/>
</g>
<defs>
<clipPath id="clip0_13569_118">
<rect width="44" height="44" fill="white"/>
</clipPath>
</defs>
</svg>
