<svg width="12" height="14" viewBox="0 0 12 14" fill="none" xmlns="http://www.w3.org/2000/svg">
<path fill-rule="evenodd" clip-rule="evenodd" d="M5.14286 0C4.8182 0 4.5214 0.183429 4.3762 0.47382L3.75597 1.71429H0.857143C0.38376 1.71429 0 2.09805 0 2.57143C0 3.04481 0.38376 3.42857 0.857143 3.42857V12C0.857143 12.9468 1.62465 13.7143 2.57143 13.7143H9.42857C10.3754 13.7143 11.1429 12.9468 11.1429 12V3.42857C11.6163 3.42857 12 3.04481 12 2.57143C12 2.09805 11.6163 1.71429 11.1429 1.71429H8.244L7.62377 0.47382C7.47857 0.183429 7.18183 0 6.85714 0H5.14286ZM3.42857 5.14286C3.42857 4.66947 3.81233 4.28571 4.28571 4.28571C4.7591 4.28571 5.14286 4.66947 5.14286 5.14286V10.2857C5.14286 10.7591 4.7591 11.1429 4.28571 11.1429C3.81233 11.1429 3.42857 10.7591 3.42857 10.2857V5.14286ZM7.71429 4.28571C7.24089 4.28571 6.85714 4.66947 6.85714 5.14286V10.2857C6.85714 10.7591 7.24089 11.1429 7.71429 11.1429C8.18769 11.1429 8.57143 10.7591 8.57143 10.2857V5.14286C8.57143 4.66947 8.18769 4.28571 7.71429 4.28571Z" fill="#F5222D"/>
</svg>
