<svg width="78" height="61" viewBox="0 0 78 61" fill="none" xmlns="http://www.w3.org/2000/svg">
<path d="M40.9505 14.8714L40.8663 14.8491C40.3588 14.7147 40.0407 14.2268 40.2041 13.7402C40.2041 13.7402 40.2041 13.7401 40.2041 13.7401L40.3463 13.7879L40.9505 14.8714ZM40.9505 14.8714L40.9536 14.8683M40.9505 14.8714L40.9536 14.8683M40.9536 14.8683C41.433 14.9533 41.9292 14.7041 42.0789 14.2554L40.9536 14.8683Z" fill="#483EA8" stroke="#F9FFF9" stroke-width="0.3"/>
<path d="M63.894 42.732H58.9153C58.4572 42.732 58.0855 42.4021 58.0855 41.9952C58.0855 41.5884 58.4571 41.2584 58.9153 41.2584H63.894C70.7568 41.2584 76.3407 36.3003 76.3407 30.2066C76.3407 24.1128 70.7568 19.1547 63.894 19.1547H63.7742C63.5336 19.1547 63.3048 19.062 63.1472 18.9005C62.9895 18.7389 62.9184 18.5247 62.9528 18.3131C63.0268 17.8542 63.0642 17.3932 63.0642 16.9443C63.0642 11.6631 58.2247 7.36593 52.2769 7.36593C49.963 7.36593 47.7564 8.00799 45.8952 9.22316C45.4862 9.48998 44.9054 9.37157 44.6689 8.97212C39.398 0.0601123 25.6311 -1.13668 18.4936 6.61599C15.4868 9.88207 14.3054 14.1307 15.2521 18.2716C15.3564 18.7289 14.9623 19.1552 14.4389 19.1552H14.1064C7.24355 19.1552 1.65965 24.1134 1.65965 30.2071C1.65965 36.3009 7.24355 41.259 14.1064 41.259H19.085C19.5432 41.259 19.9148 41.589 19.9148 41.9958C19.9148 42.4026 19.5432 42.7326 19.085 42.7326H14.1064C6.3283 42.7326 0 37.1135 0 30.2071C0 23.4944 5.97795 17.9979 13.455 17.6947C12.7527 13.3986 14.0957 9.06524 17.2086 5.68343C24.8503 -2.61758 39.495 -1.68715 45.6857 7.56908C47.6606 6.46967 49.9205 5.89293 52.2766 5.89293C59.4827 5.89293 65.1929 11.3389 64.6932 17.7016C72.1014 18.0705 78 23.538 78 30.2065C78 37.1135 71.6717 42.7321 63.8936 42.7321L63.894 42.732Z" fill="#483EA8"/>
<path d="M17.994 41.5802C17.994 51.8362 27.3847 60.1503 38.8889 60.1503C50.3933 60.1503 59.7837 51.8361 59.7837 41.5802C59.7837 31.3242 50.3933 23.0102 38.8889 23.0102C27.3845 23.0102 17.994 31.3243 17.994 41.5802ZM19.954 41.5802C19.954 32.3354 28.4311 24.7841 38.8889 24.7841C49.3466 24.7841 57.8238 32.3352 57.8238 41.5802C57.8238 50.825 49.3466 58.3763 38.8889 58.3763C28.4312 58.3763 19.954 50.8252 19.954 41.5802Z" fill="#483EA8" stroke="#F9FFF9" stroke-width="0.3"/>
<path d="M38.5111 48.9945C38.5111 49.3915 38.8676 49.684 39.2686 49.684C39.6696 49.684 40.0261 49.3919 40.0261 48.9945V34.9696C40.0261 34.5726 39.6696 34.2802 39.2686 34.2802C38.8676 34.2802 38.5111 34.5727 38.5111 34.9696V48.9945Z" fill="#483EA8" stroke="#483EA8" stroke-width="0.3"/>
<path d="M43.5991 39.78C43.7477 39.912 43.94 39.9758 44.1282 39.9759H44.1283C44.3162 39.9758 44.5086 39.9126 44.6574 39.78C44.962 39.5096 44.962 39.0633 44.6574 38.7928L39.7975 34.4775C39.5034 34.2164 39.0328 34.2163 38.739 34.4776L33.8792 38.7928C33.5746 39.0633 33.5746 39.5096 33.8792 39.78C34.1733 40.0412 34.6438 40.0413 34.9377 39.78L39.2683 35.9346L43.5991 39.78Z" fill="#483EA8" stroke="#483EA8" stroke-width="0.3"/>
</svg>
